<svg width="24" height="25" viewBox="0 0 24 25" fill="none" xmlns="http://www.w3.org/2000/svg">
<path fill-rule="evenodd" clip-rule="evenodd" d="M12 22.4999C6.48 22.4999 2 18.0099 2 12.4999C2 6.97988 6.48 2.49988 12 2.49988C17.51 2.49988 22 6.97988 22 12.4999C22 18.0099 17.51 22.4999 12 22.4999ZM16 10.5199C15.7 10.2299 15.23 10.2299 14.94 10.5299L12 13.4799L9.06 10.5299C8.77 10.2299 8.29 10.2299 8 10.5199C7.7 10.8199 7.7 11.2899 8 11.5799L11.47 15.0699C11.61 15.2099 11.8 15.2899 12 15.2899C12.2 15.2899 12.39 15.2099 12.53 15.0699L16 11.5799C16.15 11.4399 16.22 11.2499 16.22 11.0599C16.22 10.8599 16.15 10.6699 16 10.5199Z" fill="#3FB195"/>
</svg>
