<svg width="110" height="117" viewBox="0 0 110 117" fill="none" xmlns="http://www.w3.org/2000/svg">
<path d="M44.2624 0.581508C44.7035 0.436133 45.4388 0 46.027 0H46.4681C47.0563 0 47.6445 0.436133 47.9386 0.872267L49.7033 3.19829C49.8503 3.63443 50.8797 4.07055 51.4679 4.07055L56.6147 5.81508C57.2029 5.81508 57.644 6.25121 58.0852 6.68733L59.7027 9.44949C60.2909 9.59488 59.8498 10.3218 59.7027 10.7579L56.4676 14.1016C56.1735 14.3923 55.8794 15.2646 55.4383 15.7007L54.85 18.6082V20.6435L55.4383 21.9519C55.8794 22.5334 56.0265 23.4057 56.0265 23.9872L56.1735 24.8594C56.1735 25.2956 56.1735 26.3132 56.0265 26.8947L54.4089 30.5291C54.2618 30.9653 53.6736 31.6922 53.5266 32.2737L50.1444 40.7055C49.7033 41.287 49.7033 42.3047 49.7033 42.8862C49.7033 43.4677 49.8503 44.1946 49.7033 44.6307C48.8209 50.0096 46.4681 63.0935 46.027 64.2566L43.3801 71.8162C43.086 72.2523 42.6448 73.2699 42.6448 73.8514C42.2037 75.4506 42.4978 75.8867 41.6154 77.0497L36.6157 85.3362C36.4687 85.7723 35.7334 86.4992 35.4393 86.6446L31.616 90.8605C31.4689 91.2966 30.8807 91.8782 30.7337 92.4597L27.2045 101.328C27.0574 101.909 27.0574 102.927 27.0574 103.218V112.522C27.0574 113.249 26.7633 113.83 26.6162 114.412L26.028 116.447C25.7339 116.883 25.1457 117.174 24.7046 116.883L22.94 116.011C22.6459 115.72 21.7636 115.429 21.3224 114.848L20.5871 114.412C20.4401 113.83 20.146 113.249 20.146 112.522L20.5871 110.05C20.5871 109.469 20.5871 108.742 20.4401 108.16L18.3814 103.799C18.2343 103.218 17.7932 102.636 17.0579 102.055L12.6464 98.1294C12.0582 97.5479 11.3229 97.4025 10.7347 97.4025H10.5877C10.1465 97.4025 9.41127 96.9663 9.11717 96.3848L5.88204 91.8782C5.58794 91.442 5.44089 90.7151 5.14679 90.1336L4.26448 86.9353C4.26448 86.4992 3.97038 85.4816 3.97038 85.0454V81.7018C3.97038 81.1203 3.82333 80.5388 3.23512 80.3934L0.735256 78.3581C0.147051 78.2127 0 77.1951 0 76.759L0.147051 75.1598C0.147051 74.5783 0.588204 73.8514 0.588204 73.2699L1.02936 70.9439C1.02936 70.5078 1.61756 69.7809 1.61756 69.3447L2.05872 69.054C2.49987 68.4725 2.79397 67.891 2.49987 67.3095L2.05872 57.4238C2.05872 56.9877 2.05872 56.2608 2.49987 55.8247L19.5578 26.1678C19.8519 25.5863 20.4401 24.8594 20.8813 24.4233L24.7046 20.062C25.1457 19.7713 25.7339 19.0444 26.028 18.6082L30.2925 9.15874C30.4396 8.72261 31.3219 8.1411 31.616 8.1411L36.0275 6.54196C36.6157 6.25121 37.351 5.96045 38.2333 5.81508L40.8802 5.37894C41.4684 5.08819 42.0566 4.50668 42.0566 4.07055C42.0566 3.63443 42.2037 2.76216 42.6448 2.18065L44.2624 0.581508Z" fill="#3FB195"/>
<path d="M2.62196 61.9557C2.40265 62.0364 2.19525 62.1169 2 62.1968C2.19118 62.1155 2.39855 62.0349 2.62196 61.9557C9.21862 59.527 26.5969 56.8783 48.5222 64.183C71.1765 71.7306 98.7528 62.6934 109.709 57.2313C99.7641 65.6727 73.6038 79.8741 48.5222 69.1486C24.3889 58.8285 8.30803 59.9401 2.62196 61.9557Z" fill="white"/>
<path d="M2.62196 61.9557C2.40265 62.0364 2.19525 62.1169 2 62.1968C2.19118 62.1155 2.39855 62.0349 2.62196 61.9557C9.21862 59.527 26.5969 56.8783 48.5222 64.183C71.1765 71.7306 98.7528 62.6934 109.709 57.2313C99.7641 65.6727 73.6038 79.8741 48.5222 69.1486C24.3889 58.8285 8.30803 59.9401 2.62196 61.9557Z" fill="#3FB195"/>
<path d="M22.9949 60.7077L25.4957 49.2511H31.0395L31.7196 46H16.7309L16.0508 49.2511H21.5945L19.0937 60.7077H22.9949Z" fill="#222222"/>
<path d="M29.7957 62.6939H33.6969L35.0957 57.5931H38.4065L40.6138 64.1835H44.7844L42.2435 57.1521C45.0667 56.2448 46.8248 53.8254 46.8248 51.1539C46.8248 48.1296 44.4507 46 41.0244 46H33.6969L29.7957 62.6939ZM36.9564 49.0747H40.1389C41.8585 49.0747 42.8723 49.9568 42.8723 51.4941C42.8723 53.3591 41.3581 54.6696 39.0867 54.6696H35.6988L36.9564 49.0747Z" fill="#222222"/>
<path d="M58.6063 64.1835H62.5973L60.1976 46H55.719L45.1961 64.1835H49.2384L51.6253 59.8487H58.1572L58.6063 64.1835ZM56.9894 49.793H57.2332L57.9775 56.9127H53.0883L56.9894 49.793Z" fill="#222222"/>
<path d="M72.1973 64.1835L82.2967 46H77.9335L70.8242 59.8739H70.5932L69.2971 46H65.1778L67.5133 64.1835H72.1973Z" fill="#222222"/>
<path d="M93.0388 60.9324H84.659L85.6599 56.5094H93.5521L94.1937 53.4977H86.2887L87.2512 49.2511H95.6181L96.2983 46H84.0302L80.0905 64.1835H92.3715L93.0388 60.9324Z" fill="#222222"/>
<path d="M102.311 60.8694H99.5845L102.831 46H98.9429L95.0032 64.1835H98.9429L102.311 60.8694Z" fill="#222222"/>
</svg>
