<svg width="24" height="24" viewBox="0 0 24 24" fill="none" xmlns="http://www.w3.org/2000/svg">
<path fill-rule="evenodd" clip-rule="evenodd" d="M12 21C7.032 21 3 16.977 3 12C3 7.032 7.032 3 12 3C16.977 3 21 7.032 21 12C21 16.977 16.977 21 12 21ZM14.8709 15.339C14.9789 15.402 15.0959 15.438 15.2219 15.438C15.4469 15.438 15.6719 15.321 15.7979 15.105C15.9869 14.79 15.8879 14.376 15.5639 14.178L12.3599 12.27V8.112C12.3599 7.734 12.0539 7.437 11.6849 7.437C11.3159 7.437 11.0099 7.734 11.0099 8.112V12.657C11.0099 12.891 11.1359 13.107 11.3429 13.233L14.8709 15.339Z" fill="#3FB195"/>
</svg>
