<svg width="40" height="40" viewBox="0 0 40 40" fill="none" xmlns="http://www.w3.org/2000/svg">
<path opacity="0.4" d="M20.0003 36.667C10.8087 36.667 3.33366 29.1903 3.33366 20.0003C3.33366 10.8103 10.8087 3.33368 20.0003 3.33368C29.1903 3.33368 36.667 10.8103 36.667 20.0003C36.667 29.1903 29.1903 36.667 20.0003 36.667Z" fill="white"/>
<path d="M22.4044 27.0349C22.086 27.0349 21.766 26.9132 21.5227 26.6699L15.711 20.8865C15.476 20.6515 15.3444 20.3332 15.3444 19.9999C15.3444 19.6682 15.476 19.3499 15.711 19.1149L21.5227 13.3282C22.011 12.8415 22.801 12.8415 23.2894 13.3315C23.776 13.8215 23.7744 14.6132 23.286 15.0999L18.3644 19.9999L23.286 24.8999C23.7744 25.3865 23.776 26.1765 23.2894 26.6665C23.046 26.9132 22.7244 27.0349 22.4044 27.0349Z" fill="#222222"/>
</svg>
