<svg width="32" height="32" viewBox="0 0 32 32" fill="none" xmlns="http://www.w3.org/2000/svg">
<rect width="32" height="32" rx="8" fill="#3FB195" fill-opacity="0.08"/>
<path d="M26.5 10H23.425C23.05 8.275 21.55 7 19.75 7C17.95 7 16.45 8.275 16.075 10H5.5V11.5H16.075C16.45 13.225 17.95 14.5 19.75 14.5C21.55 14.5 23.05 13.225 23.425 11.5H26.5V10ZM19.75 13C18.475 13 17.5 12.025 17.5 10.75C17.5 9.475 18.475 8.5 19.75 8.5C21.025 8.5 22 9.475 22 10.75C22 12.025 21.025 13 19.75 13Z" fill="#3FB195"/>
<path d="M5.5 22H8.575C8.95 23.725 10.45 25 12.25 25C14.05 25 15.55 23.725 15.925 22H26.5V20.5H15.925C15.55 18.775 14.05 17.5 12.25 17.5C10.45 17.5 8.95 18.775 8.575 20.5H5.5V22ZM12.25 19C13.525 19 14.5 19.975 14.5 21.25C14.5 22.525 13.525 23.5 12.25 23.5C10.975 23.5 10 22.525 10 21.25C10 19.975 10.975 19 12.25 19Z" fill="#3FB195"/>
</svg>
